<svg width="52" height="24" viewBox="0 0 52 24" fill="none" xmlns="http://www.w3.org/2000/svg">
<path d="M33.2393 15H26.6904V14.0498L29.3633 11.3359C29.86 10.8346 30.277 10.388 30.6143 9.99609C30.9561 9.60417 31.2158 9.21908 31.3936 8.84082C31.5713 8.45801 31.6602 8.03874 31.6602 7.58301C31.6602 7.0179 31.4915 6.58724 31.1543 6.29102C30.8216 5.99023 30.3818 5.83984 29.835 5.83984C29.3564 5.83984 28.9326 5.92188 28.5635 6.08594C28.1943 6.25 27.8161 6.48242 27.4287 6.7832L26.8203 6.01758C27.0846 5.79427 27.3717 5.59603 27.6816 5.42285C27.9961 5.24967 28.3311 5.11296 28.6865 5.0127C29.0465 4.91243 29.4294 4.8623 29.835 4.8623C30.4502 4.8623 30.9811 4.9694 31.4277 5.18359C31.8743 5.39779 32.2184 5.70312 32.46 6.09961C32.7061 6.49609 32.8291 6.96777 32.8291 7.51465C32.8291 8.04329 32.7243 8.53548 32.5146 8.99121C32.305 9.44238 32.0111 9.89128 31.6328 10.3379C31.2546 10.7799 30.8125 11.2493 30.3066 11.7461L28.1328 13.9131V13.9609H33.2393V15ZM41.8657 9.98926C41.8657 10.8005 41.8041 11.5251 41.6811 12.1631C41.558 12.8011 41.3644 13.3411 41.1 13.7832C40.8357 14.2253 40.4939 14.5625 40.0746 14.7949C39.6554 15.0228 39.1518 15.1367 38.5639 15.1367C37.8211 15.1367 37.2058 14.9339 36.7182 14.5283C36.2351 14.1227 35.8728 13.5371 35.6313 12.7715C35.3943 12.0013 35.2758 11.0739 35.2758 9.98926C35.2758 8.92285 35.3829 8.00684 35.5971 7.24121C35.8159 6.47103 36.1668 5.88086 36.6498 5.4707C37.1329 5.05599 37.7709 4.84863 38.5639 4.84863C39.3159 4.84863 39.9357 5.05371 40.4233 5.46387C40.9109 5.86947 41.2732 6.45736 41.5102 7.22754C41.7472 7.99316 41.8657 8.91374 41.8657 9.98926ZM36.4174 9.98926C36.4174 10.9189 36.4881 11.6937 36.6293 12.3135C36.7706 12.9333 36.9985 13.3981 37.3129 13.708C37.6319 14.0133 38.0489 14.166 38.5639 14.166C39.0789 14.166 39.4936 14.0133 39.808 13.708C40.1271 13.4027 40.3572 12.9401 40.4985 12.3203C40.6443 11.7005 40.7172 10.9235 40.7172 9.98926C40.7172 9.07324 40.6466 8.30762 40.5053 7.69238C40.364 7.07259 40.1362 6.60775 39.8217 6.29785C39.5073 5.9834 39.088 5.82617 38.5639 5.82617C38.0398 5.82617 37.6205 5.9834 37.3061 6.29785C36.9916 6.60775 36.7638 7.07259 36.6225 7.69238C36.4858 8.30762 36.4174 9.07324 36.4174 9.98926ZM50.4374 9.98926C50.4374 10.8005 50.3759 11.5251 50.2528 12.1631C50.1298 12.8011 49.9361 13.3411 49.6718 13.7832C49.4074 14.2253 49.0656 14.5625 48.6464 14.7949C48.2271 15.0228 47.7235 15.1367 47.1356 15.1367C46.3928 15.1367 45.7776 14.9339 45.2899 14.5283C44.8068 14.1227 44.4445 13.5371 44.203 12.7715C43.966 12.0013 43.8475 11.0739 43.8475 9.98926C43.8475 8.92285 43.9546 8.00684 44.1688 7.24121C44.3876 6.47103 44.7385 5.88086 45.2216 5.4707C45.7046 5.05599 46.3427 4.84863 47.1356 4.84863C47.8876 4.84863 48.5074 5.05371 48.995 5.46387C49.4826 5.86947 49.8449 6.45736 50.0819 7.22754C50.3189 7.99316 50.4374 8.91374 50.4374 9.98926ZM44.9891 9.98926C44.9891 10.9189 45.0598 11.6937 45.2011 12.3135C45.3423 12.9333 45.5702 13.3981 45.8846 13.708C46.2037 14.0133 46.6207 14.166 47.1356 14.166C47.6506 14.166 48.0653 14.0133 48.3798 13.708C48.6988 13.4027 48.9289 12.9401 49.0702 12.3203C49.216 11.7005 49.2889 10.9235 49.2889 9.98926C49.2889 9.07324 49.2183 8.30762 49.077 7.69238C48.9358 7.07259 48.7079 6.60775 48.3934 6.29785C48.079 5.9834 47.6597 5.82617 47.1356 5.82617C46.6115 5.82617 46.1923 5.9834 45.8778 6.29785C45.5634 6.60775 45.3355 7.07259 45.1942 7.69238C45.0575 8.30762 44.9891 9.07324 44.9891 9.98926Z" fill="white"/>
<path d="M12.4287 7.25725L13.7612 5.03654L17.1965 5.46595L18.5 7.63849V10.3206L12.0145 18.1959L5.93878 10.2507L5.05633 8.04458L6.34555 5.89588L9.35443 4.60636L11.6159 7.32009L12.0665 7.86089L12.4287 7.25725Z" fill="white" stroke="white"/>
<path d="M11.9 7.0948C10.6998 1.47892 1.40879 5.90389 5.76035 11.6018C10.1119 17.2996 12.4 19.4908 12.4 19.4908" stroke="white"/>
<path d="M11.8941 7.0948C13.0943 1.47892 22.7304 5.90389 18.3788 11.6018C14.0273 17.2996 11.7 19.5 11.7 19.5" stroke="white"/>
<path d="M11.391 6.70752L12.4043 6.70757L12.3834 7.24079H11.391V6.70752Z" fill="white"/>
</svg>
